<svg width="192" height="192" viewBox="0 0 192 192" fill="none" xmlns="http://www.w3.org/2000/svg">
<path d="M151.036 144.948C155.809 144.948 159.677 141.079 159.677 136.307C159.677 131.535 155.809 127.667 151.036 127.667C146.264 127.667 142.396 131.535 142.396 136.307C142.396 141.079 146.264 144.948 151.036 144.948Z" fill="url(#paint0_radial_18_62)"/>
<path d="M151.037 128.646C152.556 128.646 154.041 129.096 155.304 129.94C156.567 130.784 157.551 131.983 158.133 133.387C158.714 134.79 158.866 136.335 158.57 137.824C158.273 139.314 157.542 140.683 156.468 141.757C155.394 142.831 154.025 143.562 152.535 143.859C151.045 144.155 149.501 144.003 148.097 143.422C146.694 142.84 145.494 141.856 144.65 140.593C143.806 139.33 143.356 137.845 143.356 136.326C143.356 134.289 144.165 132.336 145.606 130.895C147.046 129.455 149 128.646 151.037 128.646ZM151.037 126.726C149.138 126.726 147.282 127.289 145.703 128.344C144.124 129.398 142.893 130.898 142.167 132.652C141.44 134.406 141.25 136.337 141.62 138.199C141.991 140.061 142.905 141.772 144.248 143.115C145.591 144.457 147.301 145.372 149.164 145.742C151.026 146.112 152.956 145.922 154.711 145.196C156.465 144.469 157.965 143.239 159.019 141.66C160.074 140.081 160.638 138.225 160.638 136.326C160.638 135.065 160.389 133.817 159.907 132.652C159.424 131.487 158.717 130.429 157.825 129.537C156.934 128.646 155.876 127.939 154.711 127.456C153.546 126.974 152.297 126.726 151.037 126.726Z" fill="white"/>
<path d="M89.5075 3.41136C87.75 8.11776 87.4161 13.2372 88.5475 18.132C89.6972 22.9436 92.2238 27.3161 95.8185 30.715C93.5271 38.1009 94.2312 45.7557 97.8475 52.0152C100.376 56.3621 104.136 59.8629 108.652 62.0764C109.211 64.3847 110.099 66.6006 111.289 68.6559C114.706 74.4515 120.234 78.6995 126.714 80.5093C126.933 83.3594 127.783 86.1251 129.204 88.6056C132.897 95.0059 140.219 98.8461 148.79 98.8461C150.005 98.8442 151.219 98.7694 152.425 98.6221C158.634 103.521 166.323 106.164 174.232 106.117C179.139 106.113 183.997 105.136 188.524 103.243C187.139 120.927 180.714 137.844 170.01 151.989C159.307 166.135 144.774 176.916 128.132 183.058C111.49 189.199 93.4362 190.442 76.1093 186.641C58.7824 182.839 42.9081 174.152 30.3662 161.607C17.7785 149.019 9.07724 133.076 5.3 115.679C1.52275 98.2825 2.82894 80.1667 9.06279 63.4919C15.2966 46.817 26.1951 32.2869 40.4585 21.6342C54.722 10.9815 71.7484 4.6558 89.5075 3.41136ZM94.7112 0C75.8572 0.254811 57.4957 6.05549 41.9174 16.6783C26.3391 27.3012 14.2338 42.2758 7.1119 59.734C-0.0100485 77.1922 -1.83335 96.3609 1.86948 114.849C5.5723 133.336 14.6373 150.325 27.9335 163.694C41.2297 177.063 58.1684 186.221 76.6363 190.025C95.1042 193.83 114.284 192.112 131.781 185.087C149.279 178.062 164.321 166.04 175.03 150.521C185.739 135.002 191.641 116.674 192 97.8221C188.107 100.265 183.747 101.867 179.199 102.526C177.557 102.773 175.899 102.897 174.238 102.897C166.587 102.942 159.179 100.214 153.385 95.2171C151.869 95.4774 150.334 95.6101 148.796 95.614C141.615 95.614 135.233 92.6314 131.982 86.9928C130.424 84.26 129.693 81.1341 129.876 77.9939C123.213 76.6051 117.446 72.8737 114.073 67.011C112.787 64.7811 111.905 62.3413 111.468 59.8043C106.921 57.9297 103.114 54.6157 100.632 50.3703C96.9962 44.0724 96.8554 36.5841 99.5629 29.6974C95.6334 26.5743 92.8584 22.2295 91.6773 17.3512C90.3506 11.3939 91.4417 5.15367 94.7112 0Z" fill="white"/>
<path d="M114.553 118.706C119.325 118.706 123.194 114.838 123.194 110.066C123.194 105.294 119.325 101.426 114.553 101.426C109.781 101.426 105.912 105.294 105.912 110.066C105.912 114.838 109.781 118.706 114.553 118.706Z" fill="url(#paint1_radial_18_62)"/>
<path d="M114.553 102.404C116.072 102.404 117.557 102.855 118.82 103.699C120.083 104.543 121.068 105.742 121.649 107.146C122.23 108.549 122.382 110.093 122.086 111.583C121.79 113.073 121.058 114.441 119.984 115.516C118.91 116.59 117.541 117.321 116.051 117.617C114.561 117.914 113.017 117.762 111.614 117.18C110.21 116.599 109.011 115.615 108.167 114.352C107.323 113.089 106.872 111.604 106.872 110.085C106.872 108.048 107.681 106.094 109.122 104.654C110.562 103.214 112.516 102.404 114.553 102.404ZM114.553 100.484C112.654 100.484 110.798 101.047 109.219 102.102C107.64 103.157 106.41 104.657 105.683 106.411C104.956 108.165 104.766 110.095 105.137 111.958C105.507 113.82 106.421 115.531 107.764 116.873C109.107 118.216 110.817 119.13 112.68 119.501C114.542 119.871 116.473 119.681 118.227 118.954C119.981 118.228 121.481 116.997 122.536 115.418C123.591 113.84 124.154 111.983 124.154 110.085C124.154 107.538 123.142 105.097 121.342 103.296C119.541 101.496 117.099 100.484 114.553 100.484Z" fill="white"/>
<path d="M65.2687 121.266C70.0409 121.266 73.9095 117.398 73.9095 112.626C73.9095 107.854 70.0409 103.985 65.2687 103.985C60.4965 103.985 56.6279 107.854 56.6279 112.626C56.6279 117.398 60.4965 121.266 65.2687 121.266Z" fill="url(#paint2_radial_18_62)"/>
<path d="M65.2685 104.965C66.7876 104.965 68.2726 105.415 69.5356 106.259C70.7987 107.103 71.7832 108.303 72.3645 109.706C72.9458 111.109 73.0979 112.654 72.8016 114.143C72.5052 115.633 71.7737 117.002 70.6995 118.076C69.6254 119.15 68.2568 119.882 66.7669 120.178C65.277 120.474 63.7327 120.322 62.3292 119.741C60.9257 119.16 59.7262 118.175 58.8822 116.912C58.0382 115.649 57.5878 114.164 57.5878 112.645C57.5878 110.608 58.397 108.655 59.8374 107.214C61.2778 105.774 63.2314 104.965 65.2685 104.965ZM65.2685 103.045C63.3696 103.045 61.5134 103.608 59.9345 104.663C58.3557 105.718 57.1251 107.217 56.3984 108.971C55.6718 110.725 55.4816 112.656 55.8521 114.518C56.2225 116.38 57.1369 118.091 58.4796 119.434C59.8223 120.776 61.5331 121.691 63.3954 122.061C65.2578 122.432 67.1882 122.241 68.9426 121.515C70.6969 120.788 72.1963 119.558 73.2513 117.979C74.3063 116.4 74.8693 114.544 74.8693 112.645C74.8693 110.099 73.8578 107.657 72.0573 105.857C70.2568 104.056 67.8148 103.045 65.2685 103.045Z" fill="white"/>
<path d="M82.5498 167.348C87.322 167.348 91.1906 163.48 91.1906 158.708C91.1906 153.936 87.322 150.068 82.5498 150.068C77.7777 150.068 73.9091 153.936 73.9091 158.708C73.9091 163.48 77.7777 167.348 82.5498 167.348Z" fill="url(#paint3_radial_18_62)"/>
<path d="M82.5501 151.047C84.0692 151.047 85.5542 151.497 86.8173 152.341C88.0803 153.185 89.0648 154.384 89.6461 155.788C90.2275 157.191 90.3796 158.736 90.0832 160.225C89.7868 161.715 89.0553 163.084 87.9812 164.158C86.907 165.232 85.5384 165.963 84.0485 166.26C82.5586 166.556 81.0143 166.404 79.6108 165.823C78.2074 165.241 77.0078 164.257 76.1638 162.994C75.3199 161.731 74.8694 160.246 74.8694 158.727C74.8694 156.69 75.6786 154.737 77.119 153.296C78.5594 151.856 80.513 151.047 82.5501 151.047ZM82.5501 149.127C80.6512 149.127 78.795 149.69 77.2161 150.745C75.6373 151.799 74.4067 153.299 73.68 155.053C72.9534 156.807 72.7632 158.738 73.1337 160.6C73.5042 162.462 74.4185 164.173 75.7612 165.516C77.104 166.858 78.8147 167.773 80.6771 168.143C82.5394 168.513 84.4699 168.323 86.2242 167.597C87.9785 166.87 89.478 165.64 90.5329 164.061C91.5879 162.482 92.151 160.626 92.151 158.727C92.151 156.181 91.1394 153.739 89.3389 151.938C87.5384 150.138 85.0964 149.127 82.5501 149.127Z" fill="white"/>
<path d="M25.585 116.146C30.3572 116.146 34.2258 112.278 34.2258 107.506C34.2258 102.734 30.3572 98.8654 25.585 98.8654C20.8128 98.8654 16.9442 102.734 16.9442 107.506C16.9442 112.278 20.8128 116.146 25.585 116.146Z" fill="url(#paint4_radial_18_62)"/>
<path d="M25.5851 99.8444C27.1042 99.8444 28.5892 100.295 29.8523 101.139C31.1154 101.983 32.0998 103.182 32.6812 104.586C33.2625 105.989 33.4146 107.533 33.1182 109.023C32.8219 110.513 32.0904 111.881 31.0162 112.956C29.942 114.03 28.5735 114.761 27.0836 115.058C25.5936 115.354 24.0493 115.202 22.6458 114.62C21.2424 114.039 20.0428 113.055 19.1989 111.792C18.3549 110.529 17.9044 109.044 17.9044 107.525C17.9044 105.488 18.7136 103.534 20.1541 102.094C21.5945 100.654 23.5481 99.8444 25.5851 99.8444ZM25.5851 97.9243C23.6863 97.9243 21.83 98.4874 20.2512 99.5423C18.6723 100.597 17.4417 102.097 16.7151 103.851C15.9884 105.605 15.7983 107.535 16.1687 109.398C16.5392 111.26 17.4536 112.971 18.7963 114.313C20.139 115.656 21.8497 116.57 23.7121 116.941C25.5745 117.311 27.5049 117.121 29.2592 116.394C31.0135 115.668 32.513 114.437 33.568 112.858C34.6229 111.28 35.186 109.424 35.186 107.525C35.186 104.979 34.1745 102.537 32.374 100.736C30.5735 98.9358 28.1314 97.9243 25.5851 97.9243Z" fill="white"/>
<path d="M72.9491 79.0247C77.7213 79.0247 81.5899 75.1562 81.5899 70.3843C81.5899 65.6123 77.7213 61.7439 72.9491 61.7439C68.177 61.7439 64.3083 65.6123 64.3083 70.3843C64.3083 75.1562 68.177 79.0247 72.9491 79.0247Z" fill="url(#paint5_radial_18_62)"/>
<path d="M72.949 62.7229C74.4681 62.7229 75.9531 63.1734 77.2162 64.0173C78.4793 64.8612 79.4637 66.0607 80.0451 67.4641C80.6264 68.8675 80.7785 70.4118 80.4821 71.9017C80.1858 73.3915 79.4543 74.76 78.3801 75.8341C77.3059 76.9082 75.9374 77.6397 74.4474 77.9361C72.9575 78.2324 71.4132 78.0803 70.0097 77.499C68.6063 76.9177 67.4067 75.9333 66.5627 74.6703C65.7188 73.4072 65.2683 71.9223 65.2683 70.4033C65.2683 68.3663 66.0775 66.4128 67.5179 64.9725C68.9584 63.5321 70.912 62.7229 72.949 62.7229ZM72.949 60.8029C71.0501 60.8029 69.1939 61.3659 67.6151 62.4208C66.0362 63.4757 64.8056 64.9751 64.079 66.7294C63.3523 68.4836 63.1622 70.4139 63.5326 72.2762C63.9031 74.1385 64.8175 75.8492 66.1602 77.1918C67.5029 78.5345 69.2136 79.4488 71.076 79.8193C72.9384 80.1897 74.8688 79.9996 76.6231 79.2729C78.3774 78.5463 79.8769 77.3158 80.9318 75.737C81.9868 74.1582 82.5499 72.3021 82.5499 70.4033C82.5499 67.8571 81.5384 65.4152 79.7379 63.6148C77.9373 61.8143 75.4953 60.8029 72.949 60.8029Z" fill="white"/>
<path d="M42.8666 50.2232C47.6388 50.2232 51.5074 46.3547 51.5074 41.5828C51.5074 36.8108 47.6388 32.9424 42.8666 32.9424C38.0944 32.9424 34.2258 36.8108 34.2258 41.5828C34.2258 46.3547 38.0944 50.2232 42.8666 50.2232Z" fill="url(#paint6_radial_18_62)"/>
<path d="M42.8663 33.9218C44.3854 33.9218 45.8703 34.3722 47.1334 35.2162C48.3965 36.0601 49.381 37.2596 49.9623 38.663C50.5436 40.0664 50.6957 41.6107 50.3994 43.1005C50.103 44.5904 49.3715 45.9589 48.2973 47.033C47.2232 48.1071 45.8546 48.8386 44.3647 49.1349C42.8748 49.4313 41.3304 49.2792 39.927 48.6979C38.5235 48.1166 37.324 47.1321 36.48 45.8691C35.636 44.6061 35.1856 43.1212 35.1856 41.6021C35.1856 39.5652 35.9948 37.6117 37.4352 36.1713C38.8756 34.731 40.8292 33.9218 42.8663 33.9218ZM42.8663 32.0017C40.9674 32.0017 39.1112 32.5648 37.5323 33.6197C35.9534 34.6746 34.7229 36.174 33.9962 37.9282C33.2695 39.6825 33.0794 41.6128 33.4499 43.4751C33.8203 45.3374 34.7347 47.048 36.0774 48.3907C37.4201 49.7333 39.1308 50.6477 40.9932 51.0181C42.8556 51.3885 44.786 51.1984 46.5403 50.4718C48.2947 49.7452 49.7941 48.5146 50.8491 46.9359C51.904 45.3571 52.4671 43.5009 52.4671 41.6021C52.4671 39.056 51.4556 36.614 49.6551 34.8136C47.8546 33.0132 45.4126 32.0017 42.8663 32.0017Z" fill="white"/>
<defs>
<radialGradient id="paint0_radial_18_62" cx="0" cy="0" r="1" gradientUnits="userSpaceOnUse" gradientTransform="translate(144.542 126.538) rotate(57.4188) scale(15.2777 13.2918)">
<stop offset="0.79" stop-opacity="0"/>
<stop offset="0.95" stop-color="white" stop-opacity="0.75"/>
</radialGradient>
<radialGradient id="paint1_radial_18_62" cx="0" cy="0" r="1" gradientUnits="userSpaceOnUse" gradientTransform="translate(107.972 100.356) rotate(57.4188) scale(15.2777 13.2918)">
<stop offset="0.79" stop-opacity="0"/>
<stop offset="0.95" stop-color="white" stop-opacity="0.75"/>
</radialGradient>
<radialGradient id="paint2_radial_18_62" cx="0" cy="0" r="1" gradientUnits="userSpaceOnUse" gradientTransform="translate(58.6969 102.91) rotate(57.4188) scale(15.2777 13.2918)">
<stop offset="0.79" stop-opacity="0"/>
<stop offset="0.95" stop-color="white" stop-opacity="0.75"/>
</radialGradient>
<radialGradient id="paint3_radial_18_62" cx="0" cy="0" r="1" gradientUnits="userSpaceOnUse" gradientTransform="translate(76.129 148.897) rotate(57.4188) scale(15.2777 13.2918)">
<stop offset="0.79" stop-opacity="0"/>
<stop offset="0.95" stop-color="white" stop-opacity="0.75"/>
</radialGradient>
<radialGradient id="paint4_radial_18_62" cx="0" cy="0" r="1" gradientUnits="userSpaceOnUse" gradientTransform="translate(18.9935 97.8016) rotate(57.4188) scale(15.2777 13.2918)">
<stop offset="0.79" stop-opacity="0"/>
<stop offset="0.95" stop-color="white" stop-opacity="0.75"/>
</radialGradient>
<radialGradient id="paint5_radial_18_62" cx="0" cy="0" r="1" gradientUnits="userSpaceOnUse" gradientTransform="translate(66.2404 60.753) rotate(57.4188) scale(15.2777 13.2918)">
<stop offset="0.79" stop-opacity="0"/>
<stop offset="0.95" stop-color="white" stop-opacity="0.75"/>
</radialGradient>
<radialGradient id="paint6_radial_18_62" cx="0" cy="0" r="1" gradientUnits="userSpaceOnUse" gradientTransform="translate(36.0625 32.012) rotate(57.4188) scale(15.2777 13.2918)">
<stop offset="0.79" stop-opacity="0"/>
<stop offset="0.95" stop-color="white" stop-opacity="0.75"/>
</radialGradient>
</defs>
</svg>
