<svg width="8" height="45" viewBox="0 0 8 45" fill="none" xmlns="http://www.w3.org/2000/svg">
<path d="M2 32C0.89543 32 -3.91405e-08 31.1046 -8.74228e-08 30L-1.31134e-06 2C-1.35962e-06 0.895427 0.895429 -1.94649e-06 2 -1.99477e-06L6 -2.16962e-06C7.10457 -2.2179e-06 8 0.895428 8 2L8 30C8 31.1046 7.10457 32 6 32L2 32Z" fill="#E6E6E6"/>
<path d="M8 42.7998C8 43.9044 7.10457 44.7998 6 44.7998L2 44.7998C0.895431 44.7998 3.98556e-07 43.9044 3.01992e-07 42.7998L-4.76996e-08 38.7998C-1.44264e-07 37.6952 0.89543 36.7998 2 36.7998L6 36.7998C7.10457 36.7998 8 37.6952 8 38.7998L8 42.7998Z" fill="#E6E6E6"/>
</svg>
