<svg width="80" height="80" viewBox="0 0 80 80" fill="none" xmlns="http://www.w3.org/2000/svg">
<path fill-rule="evenodd" clip-rule="evenodd" d="M0 16C0 7.16345 7.16344 0 16 0H64C72.8366 0 80 7.16344 80 16V48.9517C80 57.7882 72.8366 64.9517 64 64.9517H16C15.8177 64.9517 15.6362 64.9486 15.4554 64.9426L0 80.0004L1.39218e-05 49.688L0.0174206 49.705C0.00584959 49.4554 0 49.2042 0 48.9517V16ZM20 38.9709C23.6819 38.9709 26.6667 36.0629 26.6667 32.4757C26.6667 28.8885 23.6819 25.9805 20 25.9805C16.3181 25.9805 13.3333 28.8885 13.3333 32.4757C13.3333 36.0629 16.3181 38.9709 20 38.9709ZM46.6667 32.4757C46.6667 36.0629 43.6819 38.9709 40 38.9709C36.3181 38.9709 33.3333 36.0629 33.3333 32.4757C33.3333 28.8885 36.3181 25.9805 40 25.9805C43.6819 25.9805 46.6667 28.8885 46.6667 32.4757ZM60 38.9709C63.6819 38.9709 66.6667 36.0629 66.6667 32.4757C66.6667 28.8885 63.6819 25.9805 60 25.9805C56.3181 25.9805 53.3333 28.8885 53.3333 32.4757C53.3333 36.0629 56.3181 38.9709 60 38.9709Z" fill="#6E948D"/>
</svg>
